# xmcd
#
# Track frame offsets:
#	150
#	18435
#	35076
#	52458
#	70054
#	85502
#	103984
#	121762
#	143273
#	161244
#	177555
#	195197
#	213193
#
# Disc length: 3068 seconds
#
# Revision: 1
# Processed by: cddbd v1.5.2PL0 Copyright (c) Steve Scherf et al.
# Submitted via: audiograbber 1.80
#
DISCID=b10bfa0d
DTITLE=McAlister | Kemp - All kinds of tough
DYEAR=1900
DGENRE=
TTITLE0=All kinds of tough
TTITLE1=Women and Men
TTITLE2=Baby let's dance
TTITLE3=I'm sure of that
TTITLE4=Hard work
TTITLE5=It don't buy you love
TTITLE6=Sind me home (feat. Adam Brand)
TTITLE7=Billy
TTITLE8=White line
TTITLE9=Last thing I wanna do
TTITLE10=Blue collar night
TTITLE11=Where heaven ends
TTITLE12=Hell yeah (single edit)
EXTD=
EXTT0=
EXTT1=
EXTT2=
EXTT3=
EXTT4=
EXTT5=
EXTT6=
EXTT7=
EXTT8=
EXTT9=
EXTT10=
EXTT11=
EXTT12=
PLAYORDER=
